<mxfile host="app.diagrams.net" modified="2023-06-02T15:26:04.666Z" agent="Mozilla/5.0 (Windows NT 10.0; Win64; x64) AppleWebKit/537.36 (KHTML, like Gecko) Chrome/113.0.0.0 Safari/537.36 Edg/113.0.1774.57" etag="Fn9utzKn0_nj-itYzEfd" version="21.3.6" type="device">
  <diagram name="페이지-1" id="-ks9v5uaCD2AGj7Ir0KU">
    <mxGraphModel dx="469" dy="1015" grid="0" gridSize="10" guides="1" tooltips="1" connect="1" arrows="1" fold="1" page="0" pageScale="1" pageWidth="827" pageHeight="1169" math="0" shadow="0">
      <root>
        <mxCell id="0" />
        <mxCell id="1" parent="0" />
        <mxCell id="UvxBjCR1peNvATGhlcwQ-1" value="사용자" style="shape=umlLifeline;perimeter=lifelinePerimeter;whiteSpace=wrap;html=1;container=1;dropTarget=0;collapsible=0;recursiveResize=0;outlineConnect=0;portConstraint=eastwest;newEdgeStyle={&quot;edgeStyle&quot;:&quot;elbowEdgeStyle&quot;,&quot;elbow&quot;:&quot;vertical&quot;,&quot;curved&quot;:0,&quot;rounded&quot;:0};fontSize=16;" vertex="1" parent="1">
          <mxGeometry x="54" y="22" width="100" height="300" as="geometry" />
        </mxCell>
        <mxCell id="UvxBjCR1peNvATGhlcwQ-7" value="" style="html=1;points=[];perimeter=orthogonalPerimeter;outlineConnect=0;targetShapes=umlLifeline;portConstraint=eastwest;newEdgeStyle={&quot;edgeStyle&quot;:&quot;elbowEdgeStyle&quot;,&quot;elbow&quot;:&quot;vertical&quot;,&quot;curved&quot;:0,&quot;rounded&quot;:0};fontSize=16;" vertex="1" parent="UvxBjCR1peNvATGhlcwQ-1">
          <mxGeometry x="45" y="129" width="10" height="43" as="geometry" />
        </mxCell>
        <mxCell id="UvxBjCR1peNvATGhlcwQ-2" value="시스템" style="shape=umlLifeline;perimeter=lifelinePerimeter;whiteSpace=wrap;html=1;container=1;dropTarget=0;collapsible=0;recursiveResize=0;outlineConnect=0;portConstraint=eastwest;newEdgeStyle={&quot;edgeStyle&quot;:&quot;elbowEdgeStyle&quot;,&quot;elbow&quot;:&quot;vertical&quot;,&quot;curved&quot;:0,&quot;rounded&quot;:0};fontSize=16;" vertex="1" parent="1">
          <mxGeometry x="267" y="22" width="100" height="300" as="geometry" />
        </mxCell>
        <mxCell id="UvxBjCR1peNvATGhlcwQ-3" value="" style="html=1;points=[];perimeter=orthogonalPerimeter;outlineConnect=0;targetShapes=umlLifeline;portConstraint=eastwest;newEdgeStyle={&quot;edgeStyle&quot;:&quot;elbowEdgeStyle&quot;,&quot;elbow&quot;:&quot;vertical&quot;,&quot;curved&quot;:0,&quot;rounded&quot;:0};fontSize=16;" vertex="1" parent="UvxBjCR1peNvATGhlcwQ-2">
          <mxGeometry x="45" y="62" width="10" height="80" as="geometry" />
        </mxCell>
        <mxCell id="UvxBjCR1peNvATGhlcwQ-4" value="작업 보기 옵션을 선택한다." style="html=1;verticalAlign=bottom;endArrow=block;edgeStyle=elbowEdgeStyle;elbow=vertical;curved=0;rounded=0;fontSize=12;startSize=8;endSize=8;" edge="1" parent="1">
          <mxGeometry relative="1" as="geometry">
            <mxPoint x="103.5" y="88" as="sourcePoint" />
            <mxPoint x="312" y="88" as="targetPoint" />
          </mxGeometry>
        </mxCell>
        <mxCell id="UvxBjCR1peNvATGhlcwQ-6" value="선택한 옵션으로 정렬해 준다.&amp;nbsp;" style="html=1;verticalAlign=bottom;endArrow=block;edgeStyle=elbowEdgeStyle;elbow=vertical;curved=0;rounded=0;fontSize=12;startSize=8;endSize=8;" edge="1" parent="1" target="UvxBjCR1peNvATGhlcwQ-1">
          <mxGeometry width="80" relative="1" as="geometry">
            <mxPoint x="316.5" y="169" as="sourcePoint" />
            <mxPoint x="104" y="169" as="targetPoint" />
            <Array as="points">
              <mxPoint x="300" y="160" />
            </Array>
          </mxGeometry>
        </mxCell>
        <mxCell id="UvxBjCR1peNvATGhlcwQ-8" value="UC012 완료된 작업의 보기 옵션을 변경시킨다." style="shape=umlFrame;whiteSpace=wrap;html=1;pointerEvents=0;fontSize=16;width=336;height=29;" vertex="1" parent="1">
          <mxGeometry x="29" y="-30" width="370" height="398" as="geometry" />
        </mxCell>
      </root>
    </mxGraphModel>
  </diagram>
</mxfile>
